<svg width="67" height="48" viewBox="0 0 67 48" fill="none" xmlns="http://www.w3.org/2000/svg">
<path d="M10.4896 11.5701L1.07959 37.0001L14.7896 22.0501L66.1996 23.5001L10.4896 11.5701Z" fill="#002C44"/>
<path d="M1.36963 0C1.36963 0 11.8096 9.01 10.3896 11.87L65.7096 23.21C65.6996 23.21 39.0896 4.55 1.36963 0Z" fill="#FF7B3A"/>
<path d="M0.659715 37.49C0.229715 38.3 21.6297 35.31 21.6297 35.31L14.2897 21.75C14.2897 21.75 4.44971 30.4 0.659715 37.49Z" fill="#FBC949"/>
<path d="M14.2898 21.75C14.2898 21.75 24.3498 38.21 18.7198 47.77L66.5898 23.42C66.5898 23.42 19.3798 20.78 14.2898 21.75Z" fill="#F75E28"/>
</svg>
