<svg width="83" height="69" viewBox="0 0 83 69" fill="none" xmlns="http://www.w3.org/2000/svg">
<path d="M44.6923 28.2273C44.6923 33.4219 48.982 37.6364 54.2692 37.6364H65.4423C68.0859 37.6364 70.2308 39.7436 70.2308 42.3409V43.9091C70.2308 50.8189 64.4946 56.4545 57.4615 56.4545H54.2692C52.5234 56.4545 51.0769 57.8757 51.0769 59.5909V65.8636C51.0769 67.5788 52.5234 69 54.2692 69H57.4615C71.5276 69 83 57.7287 83 43.9091V9.4091C83 4.2145 78.7103 0 73.4231 0H54.2692C48.982 0 44.6923 4.2145 44.6923 9.4091V28.2273ZM0 28.2273C0 33.4219 4.2897 37.6364 9.5769 37.6364H20.75C23.3936 37.6364 25.5385 39.7436 25.5385 42.3409V43.9091C25.5385 50.8189 19.8023 56.4545 12.7692 56.4545H9.5769C7.8311 56.4545 6.3846 57.8757 6.3846 59.5909V65.8636C6.3846 67.5788 7.8311 69 9.5769 69H12.7692C26.8353 69 38.3077 57.7287 38.3077 43.9091V9.4091C38.3077 4.2145 34.018 0 28.7308 0H9.5769C4.2897 0 0 4.2145 0 9.4091V28.2273Z" fill="#EAF8FF"/>
</svg>
